<?xml version="1.0"?>
<svg xmlns="http://www.w3.org/2000/svg" height="512px" viewBox="0 0 512.00002 512" width="512px"><path d="m466.476562 40.195312c-2.675781-2.003906-5.855468-3.359374-9.328124-3.863281l-21.015626-3.050781c-1.699218-.25-3.167968-1.3125-3.925781-2.851562l-9.398437-19.046876c-3.464844-7.019531-10.484375-11.382812-18.3125-11.382812-7.832032 0-14.847656 4.363281-18.3125 11.382812l-9.398438 19.046876c-.761718 1.539062-2.226562 2.601562-3.925781 2.851562l-21.015625 3.050781c-3.347656.488281-6.421875 1.757813-9.035156 3.640625h-25.121094c-2.613281-1.882812-5.6875-3.152344-9.03125-3.640625l-21.019531-3.050781c-1.695313-.25-3.164063-1.3125-3.921875-2.851562l-9.402344-19.046876c-3.460938-7.019531-10.480469-11.382812-18.308594-11.382812s-14.847656 4.363281-18.3125 11.382812l-9.398437 19.042969c-.761719 1.539063-2.226563 2.605469-3.925781 2.851563l-21.015626 3.054687c-3.347656.488281-6.421874 1.757813-9.035156 3.640625h-25.121094c-2.613281-1.882812-5.6875-3.152344-9.03125-3.640625l-21.019531-3.054687c-1.695312-.246094-3.164062-1.3125-3.921875-2.851563l-9.402344-19.042969c-3.464843-7.019531-10.480468-11.382812-18.3125-11.382812-7.828124 0-14.847656 4.363281-18.3125 11.382812l-9.394531 19.046876c-.757812 1.539062-2.226562 2.601562-3.925781 2.851562l-21.015625 3.050781c-3.472656.507813-6.652344 1.859375-9.328125 3.863281-25.746094 2.378907-45.53125 23.84375-45.53125 50.027344v267.648438c0 27.964844 22.75 50.714844 50.714844 50.714844h109.175781l-10.09375 42.292968h-21.03125c-21.847656 0-39.625 17.777344-39.625 39.625v13.660156c0 4.199219 3.40625 7.601563 7.605469 7.601563h318.515625c4.199219 0 7.605469-3.402344 7.605469-7.601563v-13.660156c0-21.847656-17.777344-39.625-39.625-39.625h-21.03125l-10.097657-42.292968h109.183594c27.957031 0 50.703125-22.75 50.703125-50.714844v-267.648438c0-26.183594-19.78125-47.648437-45.523438-50.027344zm-116.652343 14.734376c.300781-.925782 1.3125-3.125 4.207031-3.546876l21.015625-3.054687c6.652344-.964844 12.398437-5.140625 15.375-11.167969l9.402344-19.046875c1.292969-2.621093 3.699219-2.90625 4.671875-2.90625s3.378906.285157 4.675781 2.90625l9.398437 19.046875c2.976563 6.027344 8.722657 10.203125 15.375 11.167969l21.019532 3.054687c2.890625.421876 3.90625 2.621094 4.207031 3.546876.300781.929687.773437 3.304687-1.320313 5.34375l-15.207031 14.824218c-4.816406 4.691406-7.011719 11.449219-5.875 18.078125l3.589844 20.929688c.496094 2.882812-1.285156 4.527343-2.070313 5.097656-.789062.574219-2.902343 1.757813-5.492187.398437l-18.796875-9.882812c-2.976562-1.566406-6.238281-2.347656-9.503906-2.347656-3.261719 0-6.527344.78125-9.503906 2.347656l-18.796876 9.882812c-2.585937 1.359376-4.703124.175782-5.488281-.398437-.789062-.570313-2.570312-2.214844-2.074219-5.097656l3.589844-20.929688c1.136719-6.628906-1.058594-13.386719-5.871094-18.078125l-15.210937-14.824218c-2.09375-2.039063-1.617187-4.414063-1.316406-5.34375zm-148.492188 0c.300781-.925782 1.3125-3.125 4.207031-3.546876l21.015626-3.054687c6.652343-.964844 12.402343-5.140625 15.378906-11.167969l9.398437-19.046875c1.292969-2.621093 3.699219-2.90625 4.671875-2.90625s3.378906.285157 4.675782 2.90625l9.398437 19.046875c2.976563 6.027344 8.722656 10.203125 15.375 11.167969l21.019531 3.054687c2.890625.421876 3.90625 2.621094 4.207032 3.546876.300781.929687.773437 3.304687-1.320313 5.34375l-15.207031 14.824218c-4.816406 4.691406-7.011719 11.449219-5.875 18.078125l3.589844 20.929688c.496093 2.882812-1.285157 4.527343-2.070313 5.097656-.789063.574219-2.902344 1.757813-5.492187.398437l-18.796876-9.882812c-2.976562-1.5625-6.238281-2.347656-9.503906-2.347656-3.261718 0-6.527344.785156-9.5 2.347656l-18.800781 9.882812c-2.589844 1.363282-4.699219.175782-5.488281-.394531-.789063-.574219-2.570313-2.21875-2.074219-5.101562l3.589844-20.929688c1.136719-6.625-1.058594-13.382812-5.871094-18.074219l-15.210937-14.824218c-2.09375-2.042969-1.617188-4.417969-1.316407-5.347656zm-148.492187 0c.300781-.925782 1.3125-3.125 4.207031-3.546876l21.015625-3.054687c6.652344-.964844 12.398438-5.140625 15.375-11.167969l9.402344-19.046875c1.292968-2.621093 3.699218-2.90625 4.671875-2.90625.976562 0 3.382812.285157 4.675781 2.90625l9.398438 19.046875c2.976562 6.027344 8.722656 10.203125 15.375 11.167969l21.019531 3.054687c2.890625.421876 3.90625 2.621094 4.207031 3.546876.300781.929687.773438 3.304687-1.320312 5.34375l-15.207032 14.828124c-4.816406 4.691407-7.007812 11.449219-5.871094 18.074219l3.589844 20.929688c.492188 2.882812-1.289062 4.527343-2.074218 5.097656-.789063.574219-2.902344 1.757813-5.492188.398437l-18.796875-9.882812c-5.949219-3.128906-13.054687-3.128906-19.003906 0l-18.800781 9.882812c-2.585938 1.363282-4.699219.175782-5.488282-.394531-.789062-.574219-2.566406-2.21875-2.074218-5.101562l3.589843-20.929688c1.136719-6.625-1.058593-13.382812-5.871093-18.074219l-15.207032-14.824218c-2.097656-2.042969-1.621094-4.417969-1.320312-5.347656zm354.820312 435.574218v6.054688h-303.3125v-6.054688c0-13.464844 10.953125-24.417968 24.417969-24.417968h254.476563c13.464843 0 24.417968 10.953124 24.417968 24.417968zm-61.082031-39.625h-181.148437l10.097656-42.292968h160.953125zm114.71875-57.503906h-118.761719c-.019531 0-291.820312 0-291.820312 0-18.726563 0-34.101563-14.570312-35.40625-32.964844h65.933594c4.199218 0 7.605468-3.40625 7.605468-7.605468 0-4.199219-3.40625-7.605469-7.605468-7.605469h-66.035157v-254.976563c0-14.847656 9.125-27.519531 22.1875-32.628906.246094 5.046875 2.371094 9.890625 6.148438 13.570312l15.207031 14.824219c1.230469 1.199219 1.789062 2.921875 1.5 4.613281l-3.589844 20.933594c-1.324218 7.71875 1.789063 15.371094 8.121094 19.972656 3.582031 2.601563 7.769531 3.921876 11.984375 3.921876 3.246094 0 6.507813-.78125 9.523437-2.367188l18.796876-9.882812c1.523437-.800782 3.335937-.796876 4.851562 0l18.796875 9.882812c6.929687 3.644531 15.171875 3.046875 21.507813-1.554688 6.332031-4.601562 9.445312-12.253906 8.121093-19.972656l-3.589843-20.929687c-.289063-1.691407.273437-3.417969 1.5-4.617188l15.207031-14.824219c4.378906-4.265624 6.53125-10.089843 6.121093-15.980468h8.3125c-.410156 5.890625 1.742188 11.714844 6.121094 15.980468l15.207032 14.824219c1.226562 1.199219 1.789062 2.925781 1.5 4.617188l-3.589844 20.929687c-1.324219 7.71875 1.789062 15.371094 8.121094 19.972656 6.335937 4.601563 14.574218 5.199219 21.507812 1.554688l18.796875-9.882812c1.519531-.796876 3.335937-.796876 4.851563 0l18.796874 9.882812c3.015626 1.585938 6.277344 2.367188 9.523438 2.367188 4.21875 0 8.40625-1.320313 11.984375-3.921876 6.335937-4.601562 9.445313-12.253906 8.121094-19.972656l-3.589844-20.929687c-.289063-1.691407.273437-3.417969 1.5-4.617188l15.210937-14.824219c4.375-4.265624 6.527344-10.089843 6.117188-15.980468h8.3125c-.410156 5.890625 1.742188 11.714844 6.121094 15.980468l15.207031 14.824219c1.230469 1.199219 1.789063 2.925781 1.5 4.617188l-3.589844 20.929687c-1.324219 7.71875 1.789063 15.371094 8.121094 19.972656 3.582031 2.601563 7.769531 3.921876 11.984375 3.921876 3.246094 0 6.507812-.78125 9.523438-2.367188l18.796874-9.882812c1.519532-.796876 3.332032-.796876 4.851563 0l18.800781 9.882812c6.929688 3.644531 15.167969 3.050781 21.503906-1.550781 6.335938-4.605469 9.445313-12.257813 8.125-19.976563l-3.589843-20.929687c-.292969-1.691407.269531-3.417969 1.5-4.613281l15.207031-14.824219c3.777344-3.683594 5.898438-8.523438 6.148438-13.570313 13.054687 5.105469 22.175781 17.777344 22.175781 32.625v254.976563h-390.203125c-4.199219 0-7.601563 3.40625-7.601563 7.605469 0 4.199218 3.402344 7.605468 7.601563 7.605468h390.101562c-1.304687 18.394532-16.675781 32.964844-35.394531 32.964844zm0 0" fill="#D80027"/><path d="m235.242188 239.753906c.960937 1.773438 2.582031 3.097656 4.515624 3.671875 1.929688.578125 4.015626.363281 5.789063-.59375l11.773437-6.359375v85.03125c0 4.199219 3.40625 7.605469 7.605469 7.605469h138.019531c4.199219 0 7.601563-3.40625 7.601563-7.605469v-44.699218c0-4.199219-3.402344-7.605469-7.601563-7.605469-4.199218 0-7.605468 3.40625-7.605468 7.605469v37.09375h-122.808594v-90.179688c0-2.675781-1.410156-5.15625-3.707031-6.527344-2.304688-1.375-5.15625-1.433594-7.511719-.160156l-16.300781 8.804688-19.785157-36.621094 41.621094-22.480469h12.660156c3.714844 26.722656 26.699219 47.367187 54.429688 47.367187 27.726562 0 50.714844-20.644531 54.425781-47.367187h12.660157l41.621093 22.480469-19.78125 36.621094-16.304687-8.804688c-2.355469-1.273438-5.207032-1.214844-7.507813.15625-2.300781 1.375-3.710937 3.855469-3.710937 6.53125v27.734375c0 4.199219 3.40625 7.605469 7.605468 7.605469 4.199219 0 7.605469-3.40625 7.605469-7.605469v-14.984375l11.773438 6.359375c1.773437.957031 3.855469 1.175781 5.789062.597656 1.933594-.578125 3.554688-1.898437 4.515625-3.671875l27.007813-50.003906c.960937-1.773438 1.175781-3.855469.597656-5.789062-.578125-1.933594-1.898437-3.554688-3.671875-4.515626l-50.003906-27.007812c-1.109375-.597656-2.351563-.914062-3.613282-.914062h-138.019531c-1.261719 0-2.503906.316406-3.613281.914062l-50 27.011719c-1.777344.957031-3.097656 2.582031-3.671875 4.511719-.578125 1.933593-.363281 4.015624.59375 5.789062zm98.695312-40.863281c-19.324219 0-35.464844-13.859375-39.023438-32.15625h78.042969c-3.554687 18.296875-19.699219 32.15625-39.019531 32.15625zm0 0" fill="#D80027"/><path d="m50.832031 189.3125h117.09375c4.199219 0 7.605469-3.402344 7.605469-7.601562 0-4.199219-3.40625-7.605469-7.605469-7.605469h-117.09375c-4.199219 0-7.605469 3.40625-7.605469 7.605469 0 4.199218 3.40625 7.601562 7.605469 7.601562zm0 0" fill="#D80027"/><path d="m50.832031 225.859375h117.09375c4.199219 0 7.605469-3.40625 7.605469-7.605469 0-4.199218-3.40625-7.605468-7.605469-7.605468h-117.09375c-4.199219 0-7.605469 3.40625-7.605469 7.605468 0 4.199219 3.40625 7.605469 7.605469 7.605469zm0 0" fill="#D80027"/><path d="m50.832031 262.402344h117.09375c4.199219 0 7.605469-3.40625 7.605469-7.605469s-3.40625-7.601563-7.605469-7.601563h-117.09375c-4.199219 0-7.605469 3.402344-7.605469 7.601563s3.40625 7.605469 7.605469 7.605469zm0 0" fill="#D80027"/><path d="m122.304688 291.34375c0-4.199219-3.402344-7.605469-7.601563-7.605469h-63.871094c-4.199219 0-7.605469 3.40625-7.605469 7.605469s3.40625 7.601562 7.605469 7.601562h63.871094c4.199219 0 7.601563-3.402343 7.601563-7.601562zm0 0" fill="#D80027"/></svg>
